<svg width="41" height="41" viewBox="0 0 41 41" fill="none" xmlns="http://www.w3.org/2000/svg">
<g clip-path="url(#clip0_117_5)">
<path fill-rule="evenodd" clip-rule="evenodd" d="M20.5 0V4.55555C29.29 4.55555 36.4445 11.7078 36.4445 20.5C36.4445 29.2922 29.29 36.4445 20.5 36.4445C11.71 36.4445 4.55555 29.2922 4.55555 20.5C4.55555 16.293 6.22971 12.3319 9.11112 9.37988V14.8055H13.6667V2.27778H1.13888V6.83333H5.21838C1.89283 10.5507 0 15.3955 0 20.5C0 31.8023 9.19538 41 20.5 41C31.8046 41 41 31.8023 41 20.5C41 9.19767 31.8046 0 20.5 0Z" fill="white"/>
</g>
<path d="M21.312 28.907C21.2199 28.9676 21.1112 29 21 29C20.8888 29 20.7801 28.9676 20.688 28.907C19.2112 27.9475 13 23.6776 13 19.6489C13 14.4506 19.28 13.618 21 17.1198C22.72 13.618 29 14.4506 29 19.6489C29 23.6784 22.7888 27.9475 21.312 28.9054V28.907Z" fill="#EA3D07"/>
<defs>
<clipPath id="clip0_117_5">
<rect width="41" height="41" fill="white"/>
</clipPath>
</defs>
</svg>
