<svg width="38" height="29" viewBox="0 0 38 29" fill="none" xmlns="http://www.w3.org/2000/svg">
<path d="M19 0C10.0419 0.0094395 2.22514 5.98502 0 14.5189C2.24432 23.0433 10.0611 28.9906 19 29C27.9581 28.9906 35.7749 23.015 38 14.4717C35.7557 5.95671 27.9389 0.0094395 19 0ZM19 4.83333C24.4286 4.83333 28.8213 9.1569 28.8213 14.5C28.8213 19.8431 24.4286 24.1667 19 24.1667C13.5714 24.1667 9.1787 19.8431 9.1787 14.5C9.1787 9.1569 13.5714 4.83333 19 4.83333ZM19 9.66667C16.2857 9.66667 14.0893 11.8285 14.0893 14.5C14.0893 17.1716 16.2857 19.3333 19 19.3333C21.7143 19.3333 23.9107 17.1716 23.9107 14.5C23.9107 11.8285 21.7143 9.66667 19 9.66667Z" fill="white"/>
</svg>
