<svg width="20" height="20" viewBox="0 0 20 20" fill="none" xmlns="http://www.w3.org/2000/svg">
<path fill-rule="evenodd" clip-rule="evenodd" d="M10.0012 13.1931L15.9195 19.2526C16.5132 19.8652 16.8995 19.8714 17.5041 19.2526L18.6915 18.0366C19.2732 17.4411 19.3126 17.0503 18.6915 16.4143L12.4258 10L18.6921 3.58572C19.2789 2.98286 19.2904 2.57601 18.6921 1.96286L17.5046 0.747435C16.8886 0.116578 16.5081 0.145721 15.9201 0.747435L10.0012 6.80686L4.08294 0.748007C3.49494 0.146292 3.11436 0.117149 2.49836 0.748007L1.31094 1.96344C0.712078 2.57658 0.722936 2.98344 1.31094 3.58629L7.57665 10L1.31094 16.4143C0.689793 17.0503 0.722936 17.4411 1.31094 18.0366L2.49779 19.2526C3.09722 19.8714 3.48351 19.8652 4.08236 19.2526L10.0012 13.1931Z" fill="white"/>
</svg>
