<?xml version="1.0" encoding="utf-8"?>
<!-- Generator: Adobe Illustrator 27.0.1, SVG Export Plug-In . SVG Version: 6.00 Build 0)  -->
<svg version="1.1" id="Capa_1" xmlns="http://www.w3.org/2000/svg" xmlns:xlink="http://www.w3.org/1999/xlink" x="0px" y="0px"
	 viewBox="0 0 380 380" style="enable-background:new 0 0 380 380;" xml:space="preserve">
<style type="text/css">
	.st0{fill:#EF4444;}
</style>
<path class="st0" d="M190,0C85.2,0,0,85.2,0,190s85.2,190,190,190c104.8,0,190-85.2,190-190S294.8,0,190,0z M190,64.2
	c23,0,44.7,6.2,63.3,17.1L81.3,253.3C70.5,234.7,64.2,213,64.2,190C64.2,120.6,120.6,64.2,190,64.2z M190,315.8
	c-23,0-44.7-6.2-63.3-17.1l171.9-171.9c10.9,18.6,17.1,40.2,17.1,63.3C315.8,259.4,259.4,315.8,190,315.8z"/>
</svg>
